<svg preserveAspectRatio="none" width="100%" height="100%" overflow="visible" style="display: block;" viewBox="0 0 12 12" fill="none" xmlns="http://www.w3.org/2000/svg">
<g id="Frame">
<g clip-path="url(#clip0_0_97)">
<path id="Vector" d="M1.11562 7.04063L5.35078 10.9945C5.52656 11.1586 5.75859 11.25 6 11.25C6.24141 11.25 6.47344 11.1586 6.64922 10.9945L10.8844 7.04063C11.5969 6.37734 12 5.44687 12 4.47422V4.33828C12 2.7 10.8164 1.30312 9.20156 1.03359C8.13281 0.855469 7.04531 1.20469 6.28125 1.96875L6 2.25L5.71875 1.96875C4.95469 1.20469 3.86719 0.855469 2.79844 1.03359C1.18359 1.30312 0 2.7 0 4.33828V4.47422C0 5.44687 0.403125 6.37734 1.11562 7.04063Z" fill="var(--fill-0, #B3B3B3)"/>
</g>
</g>
<defs>
<clipPath id="clip0_0_97">
<path d="M0 0H12V12H0V0Z" fill="white"/>
</clipPath>
</defs>
</svg>
